<?xml version="1.0" encoding="UTF-8"?>
<svg id="Layer_1" xmlns="http://www.w3.org/2000/svg" version="1.1" viewBox="0 0 340.16 153.52">
  <!-- Generator: Adobe Illustrator 30.2.1, SVG Export Plug-In . SVG Version: 2.1.1 Build 1)  -->
  <defs>
    <style>
      .st0 {
        fill: #00ffba;
      }
    </style>
  </defs>
  <path class="st0" d="M24.92,150.72l27.79-38.98c2.2-3.2,4.4-6,6.4-9-1.6.8-7.2,2.2-11.79,2.2C24.52,104.95.33,87.56.33,54.97S24.92,0,55.5,0c18.19,0,33.98,7,43.58,19.19,9,10.19,12.39,24.59,12.39,35.78,0,15.59-6.4,28.19-13.39,38.98l-38.78,56.77H24.92ZM82.09,52.17c0-15.59-11.99-25.99-25.99-25.99s-25.99,11.19-25.99,25.99,10.99,26.59,25.79,26.59c13.59,0,26.19-9.99,26.19-26.39v-.2Z"/>
  <path class="st0" d="M145.26,150.72l27.79-38.98c2.2-3.2,4.4-6,6.4-9-1.6.8-7.2,2.2-11.79,2.2-22.79,0-46.98-17.39-46.98-49.97S145.26,0,175.84,0c18.19,0,33.98,7,43.58,19.19,9,10.19,12.39,24.59,12.39,35.78,0,15.59-6.4,28.19-13.39,38.98l-38.78,56.77h-34.38ZM202.43,52.17c0-15.59-11.99-25.99-25.99-25.99s-25.99,11.19-25.99,25.99,10.99,26.59,25.79,26.59c13.59,0,26.19-9.99,26.19-26.39v-.2Z"/>
  <path class="st0" d="M241.81,39.38c0-19.39,15.99-39.38,46.58-39.38s46.58,19.79,46.58,39.58c0,15.99-9.6,24.99-16.19,29.19,14.79,6.6,21.19,20.79,21.39,36.38-.2,27.79-21.79,48.38-51.77,48.38s-51.57-20.59-51.77-48.38c.2-15.59,6.4-29.79,21.39-36.38-6.6-4.2-16.19-13.19-16.19-29.19v-.2ZM266.39,105.15c0,10.99,8.8,22.19,21.99,22.19s21.99-11.19,21.99-22.39-8.8-22.59-21.99-22.59-21.99,10.99-21.99,22.59v.2ZM270.79,42.18c0,9.79,8,17.39,17.59,17.39s17.59-7.6,17.59-17.59-8-17.59-17.59-17.59-17.59,7.4-17.59,17.59v.2Z"/>
</svg>