<?xml version="1.0" encoding="UTF-8"?>
<svg id="Layer_1" xmlns="http://www.w3.org/2000/svg" version="1.1" viewBox="0 0 633.88 560.54">
  <!-- Generator: Adobe Illustrator 30.2.1, SVG Export Plug-In . SVG Version: 2.1.1 Build 1)  -->
  <defs>
    <style>
      .st0 {
        fill: #fff;
      }

      .st1 {
        fill: #090a13;
      }

      .st2 {
        fill: #0366ff;
      }
    </style>
  </defs>
  <g>
    <path class="st1" d="M289.64,550.72c-58.65-21.1-108.52-52.61-148.38-93.72H0V138.53h37.63l5.29-54.52h73.3c42.95,0,82.6-13.63,108.3-25.06,11.88-5.3,23.41-11.27,34.24-17.74,6.39-3.83,10.32-6.54,11.08-7.07L316.91,0l47.15,34.15c1.54,1.08,18.76,12.96,45.35,24.81,25.67,11.42,65.29,25.04,108.25,25.04h73.3l6.21,63.98,23.86,4.85v125.87c8.53,16.37,12.85,34.96,12.85,55.34,0,42.86-19.61,78.82-55.22,101.26-23.64,14.9-53.6,23.25-89.13,24.85-39.33,39.57-88.18,70.03-145.26,90.57l-27.3,9.83-27.33-9.81Z"/>
    <path class="st1" d="M296.35,532.05c-58.64-21.1-107.9-53-146.54-94.89H19.84V158.37h35.79l5.29-54.52h55.29c46.43,0,88.9-14.56,116.36-26.77,12.61-5.62,24.85-11.96,36.35-18.83,7.25-4.34,11.66-7.41,12.43-7.96l35.56-25.78,35.62,25.79c1.47,1.04,20.02,13.96,48.8,26.78,27.43,12.21,69.88,26.76,116.32,26.76h55.29l5.34,55.03c.04.38.23,2.33.42,5.61l22.47,4.56v114.78c8.47,14.35,12.85,31.31,12.85,50.21,0,35.8-16.32,65.8-45.96,84.47-22.35,14.08-51.64,21.49-87.14,22.04l-3.36,3.44c-37.6,38.52-84.71,68.14-140.04,88.05l-20.59,7.41-20.61-7.4Z"/>
    <path class="st1" d="M568.93,276.23l12.41,4.34v-95.31l-15.89-3.23c-2.01-.41-4.04-.8-6.08-1.17-.05-11.99-.75-19.33-.83-20.07l-3.6-37.1h-37.28c-49.93,0-95.21-15.49-124.4-28.48-31.02-13.82-51.11-27.95-52.28-28.77l-24.06-17.42-24.01,17.41c-.92.65-5.8,4.06-13.8,8.85-12.17,7.27-25.12,13.98-38.46,19.93-29.21,12.99-74.51,28.49-124.43,28.49h-37.28l-3.59,37.03c-.08.75-.68,7.08-.81,17.49h-34.85v239.11h105.82l6.48-7.93c2.88,3.53,5.84,7.01,8.86,10.4,36.96,41.44,84.8,72.92,142.21,93.58l13.9,4.99,13.88-5c52.48-18.88,97.08-46.89,132.56-83.24l9.19-9.42c1.35.01,2.7.03,4.05.03,33.63,0,60.84-6.4,80.87-19.02,24-15.13,36.69-38.53,36.69-67.69,0-24.51-8.5-43.93-25.26-57.8Z"/>
  </g>
  <g>
    <path class="st2" d="M538.8,162.71l-1.86-19.17h-19.27c-53.42,0-101.54-16.43-132.47-30.2-34.09-15.19-55.55-30.62-55.76-30.77l-12.49-9.05-12.48,9.05c-.1.07-5.52,3.97-15.17,9.75-9.65,5.77-23.54,13.43-40.57,21.02-30.95,13.77-79.07,30.2-132.49,30.2h-19.27l-1.86,19.17c-.08.82-.72,7.68-.74,19.01h21.25c.02-10.73.62-16.95.62-16.95,111.52,0,200.73-65.02,200.73-65.02,0,0,89.19,65.02,200.71,65.02,0,0,.51,5.23.6,14.37,7.02.51,14.14,1.22,21.27,2.16-.03-11.07-.65-17.77-.73-18.59ZM316.95,474.71c-66.05-23.75-110.57-60.61-140.53-100.74l-13.83,16.9c4.18,5.39,8.54,10.63,13.07,15.71,34.74,38.95,79.87,68.6,134.11,88.11l7.19,2.58,7.17-2.58c49.65-17.87,91.68-44.21,125.08-78.43-9.23-.67-18.36-1.68-27.44-3.04-26.87,24.34-61.13,45.76-104.81,61.48Z"/>
    <g>
      <g>
        <g>
          <path class="st2" d="M413.16,214.84c-.28-.23-.54-.44-.82-.67.46.38.91.77,1.37,1.16-.18-.16-.36-.33-.56-.49Z"/>
          <path class="st2" d="M229.8,206.38c-.13-.07-.26-.13-.39-.18.34.16.67.33,1,.49-.2-.11-.41-.21-.6-.31Z"/>
        </g>
        <g>
          <path class="st2" d="M413.16,214.84c-.28-.23-.54-.44-.82-.67.46.38.91.77,1.37,1.16-.18-.16-.36-.33-.56-.49Z"/>
          <path class="st0" d="M434.57,263.3c-.02-.56-.03-1.11-.07-1.67-.02-.54-.05-1.08-.1-1.6-.05-.72-.1-1.42-.16-2.12-.08-.85-.18-1.7-.28-2.53-.07-.52-.13-1.05-.21-1.55-.07-.49-.13-.98-.21-1.47-.13-.73-.25-1.45-.39-2.17-.31-1.68-.69-3.3-1.11-4.88,0-.03,0-.07-.02-.1-.21-.77-.42-1.54-.65-2.29-.21-.72-.44-1.44-.69-2.14-.29-.87-.6-1.71-.91-2.53-.26-.67-.54-1.32-.82-1.98-.52-1.24-1.09-2.45-1.68-3.63-1.45-2.84-3.07-5.47-4.87-7.92-.42-.57-.85-1.13-1.27-1.67-1.13-1.42-2.3-2.78-3.54-4.05-.29-.31-.6-.62-.91-.93-.95-.96-1.94-1.88-2.96-2.74-.46-.39-.91-.78-1.37-1.16-.02-.02-.05-.03-.08-.07-.47-.38-.96-.77-1.47-1.13-.39-.33-.8-.64-1.22-.93-.39-.28-.78-.56-1.18-.82-1.94-1.34-3.97-2.56-6.06-3.67-.56-.31-1.11-.59-1.67-.87-.65-.33-1.31-.65-1.98-.95-.46-.21-.91-.41-1.37-.62-.42-.18-.85-.36-1.29-.54-.67-.28-1.36-.56-2.06-.82-.69-.26-1.37-.51-2.07-.75-.67-.23-1.34-.46-2.01-.67-.62-.2-1.24-.39-1.86-.57-.08-.02-.16-.05-.25-.07-.65-.2-1.32-.38-1.98-.54-.69-.2-1.37-.36-2.07-.52-.11-.03-.21-.05-.33-.08-.78-.18-1.58-.36-2.37-.51-.69-.15-1.37-.28-2.06-.39-.44-.1-.9-.18-1.36-.25-1.89-.33-3.82-.59-5.77-.78-.6-.07-1.21-.13-1.83-.16-.96-.1-1.94-.18-2.92-.23-2.16-.13-4.3-.2-6.45-.2h-112.86c1.24.85,2.38,1.71,3.46,2.55,13.44,10.5,29.45,30.48,29.45,66.02,0,40.91-18.77,70.38-50.91,82.97v47.89h76.57l46.96-57.43h7.91c.9,0,1.81-.02,2.71-.03.21,0,.42-.02.65-.02.65-.02,1.31-.05,1.96-.08,1.36-.07,2.69-.15,4.03-.28.73-.07,1.45-.13,2.19-.21.87-.1,1.75-.2,2.61-.33.11-.02.21-.03.33-.03.96-.15,1.93-.29,2.87-.46.7-.11,1.39-.25,2.07-.39,1.03-.21,2.06-.42,3.07-.67.11-.03.23-.05.34-.08.44-.11.87-.21,1.29-.33.59-.15,1.16-.31,1.73-.47.78-.23,1.57-.46,2.34-.7.83-.26,1.65-.54,2.47-.83.07-.02.13-.05.2-.07.46-.16.9-.33,1.36-.51.75-.28,1.5-.59,2.24-.9.8-.33,1.62-.69,2.4-1.06.33-.15.67-.31,1-.49.57-.26,1.13-.56,1.68-.85.08-.03.16-.07.23-.13.65-.33,1.29-.67,1.91-1.05.15-.07.28-.15.41-.23.7-.41,1.4-.83,2.07-1.27.73-.47,1.45-.96,2.17-1.45.6-.41,1.19-.83,1.78-1.29.52-.39,1.05-.78,1.55-1.21.38-.29.75-.6,1.11-.91.29-.25.57-.49.85-.73,2.63-2.32,5.06-4.88,7.27-7.73.46-.57.91-1.18,1.34-1.78.78-1.08,1.55-2.2,2.25-3.36.34-.54.67-1.08.98-1.63.51-.85.98-1.71,1.44-2.58.39-.75.77-1.52,1.13-2.29.34-.73.69-1.47,1-2.22.31-.73.62-1.49.91-2.25.28-.72.54-1.44.8-2.19.03-.05.05-.11.07-.18.16-.46.31-.91.46-1.39.16-.46.31-.93.44-1.4.21-.65.39-1.32.57-2.01.18-.62.34-1.26.49-1.91.13-.47.25-.95.34-1.42.07-.28.13-.54.18-.82.11-.51.23-1.03.31-1.55.15-.65.26-1.32.38-1.99.03-.11.05-.23.05-.33.11-.6.21-1.21.29-1.83.1-.65.2-1.31.28-1.98.05-.36.1-.72.13-1.09.1-.83.18-1.67.25-2.52.02-.07.02-.11.02-.16.07-.6.11-1.21.15-1.83.05-.59.08-1.18.11-1.78.05-.91.08-1.85.11-2.79.03-1.11.05-2.22.05-3.35s-.02-2.22-.07-3.32ZM358.06,268.82c-.33,17.17-11.76,24.94-35.98,24.94h-17.7v-49.42h18.57c10.86,0,19.08,1.45,24.83,4.61,6.97,3.79,10.31,10.03,10.31,19.11,0,.26,0,.52-.02.77Z"/>
          <path class="st0" d="M507.51,272.61c-22-4.28-38.01-6.57-38.01-16.86,0-12.28,19.14-13.13,32.86-13.13,21.71,0,41.99,4,59.14,10v-51.14c-21.15-4.3-44.57-6.86-66-6.86-28.57,0-51.14,3.87-67.75,11.45,11.69,11.43,23.22,30.39,23.22,60.54,0,19.32-4.18,36.1-12,49.73,5.6,1.78,11.61,3.27,17.95,4.56,25.43,5.13,40.86,7.71,40.86,18.28,0,8.85-13.15,13.72-34.58,13.72-16.81,0-35.87-2.58-53.42-7.87-4.62,2.55-9.57,4.69-14.86,6.39v40.05c25.43,6.01,52,9.44,81.71,9.44,57.15,0,97.72-20.29,97.72-66.87,0-44-34-55.14-66.85-61.43Z"/>
        </g>
        <path class="st0" d="M179.48,198.05h10.91c2.16,0,4.3.07,6.45.2.49.02.98.05,1.47.1.42.03.85.07,1.27.11.07,0,.11.02.18.02.62.05,1.22.1,1.83.16.03,0,.08.02.11.02.95.1,1.89.21,2.84.34s1.88.28,2.83.42c.44.08.9.15,1.34.25.69.11,1.37.25,2.06.39.78.15,1.58.33,2.37.51.11.03.21.05.33.08.69.16,1.39.33,2.07.52.65.16,1.32.34,1.98.54.08.02.16.05.25.07.62.18,1.24.38,1.86.57.67.21,1.34.44,2.01.67.7.24,1.39.49,2.07.75.7.26,1.39.54,2.06.82.44.18.87.36,1.29.54.46.21.91.41,1.37.62.33.15.65.29.98.46.34.16.67.33,1,.49.56.28,1.11.56,1.67.87,1.05.54,2.07,1.13,3.09,1.75s2.01,1.26,2.97,1.93c.46.31.9.62,1.34.95.07.03.13.08.2.15.44.31.87.64,1.29.96.51.38,1,.77,1.5,1.19.33.26.64.52.95.8.24.2.47.41.72.64.78.69,1.55,1.4,2.29,2.16.31.31.62.62.91.93.59.6,1.14,1.21,1.7,1.85.23.25.44.51.65.77.41.47.8.95,1.19,1.44.43.54.85,1.09,1.27,1.67.44.62.88,1.24,1.31,1.88.44.64.85,1.27,1.26,1.94,1.13,1.83,2.16,3.72,3.09,5.73.2.39.36.78.54,1.18.05.11.1.21.15.33.23.54.46,1.08.69,1.63.29.67.56,1.37.8,2.07.15.42.31.85.46,1.29.36,1.06.7,2.16,1.01,3.27.11.38.21.77.33,1.16.02.03.02.07.02.1.15.56.29,1.11.42,1.67.08.36.16.72.24,1.08.05.18.08.36.11.56.11.52.23,1.05.33,1.58.1.54.21,1.09.29,1.65.05.33.11.65.16,1,.05.33.11.67.15,1,.08.51.15,1.03.21,1.55.1.83.2,1.68.28,2.53.06.7.11,1.4.16,2.12.05.52.08,1.06.1,1.6.03.56.05,1.11.07,1.67.05,1.09.06,2.19.06,3.32s-.02,2.24-.05,3.35c-.03.95-.07,1.88-.11,2.79-.03.69-.08,1.37-.13,2.04-.02.16-.03.31-.03.46-.03.38-.06.73-.1,1.11-.05.59-.1,1.18-.16,1.76-.07.67-.15,1.34-.23,2.01-.08.73-.2,1.47-.31,2.19-.05.39-.11.77-.18,1.14-.02.16-.05.31-.08.47,0,.08-.02.18-.03.28-.05.24-.08.49-.13.73-.08.49-.18.96-.28,1.44-.05.21-.08.44-.13.65-.05.26-.1.52-.16.77-.05.28-.11.56-.18.82l-.15.64c-.02.13-.05.26-.1.39-.03.13-.07.26-.1.39-.15.65-.31,1.29-.49,1.91-.13.51-.26,1-.41,1.49-.03.13-.08.26-.11.39-.15.52-.31,1.03-.49,1.54-.15.47-.29.93-.46,1.39-.02.07-.03.13-.07.18-.24.75-.52,1.47-.8,2.19-.29.77-.6,1.52-.91,2.25-.07.2-.15.38-.24.57-.59,1.36-1.21,2.66-1.88,3.94-.46.87-.93,1.73-1.44,2.58-.31.56-.64,1.09-.98,1.63-.47.78-.96,1.54-1.49,2.27-.51.75-1.03,1.47-1.57,2.17-.29.41-.6.82-.96,1.21-.33.46-.7.9-1.09,1.34-.42.52-.87,1.03-1.32,1.52-.49.54-.98,1.08-1.5,1.58-.39.39-.78.78-1.18,1.16-.57.56-1.16,1.09-1.75,1.62-.38.33-.75.67-1.14.98-.07.07-.15.13-.21.18-.29.25-.6.49-.9.73-.57.46-1.14.9-1.72,1.31-.44.33-.88.64-1.32.95-.7.49-1.44.98-2.17,1.45-.67.44-1.37.87-2.07,1.27-.13.08-.28.16-.41.23-.62.38-1.26.72-1.91,1.05-.07.07-.15.1-.23.13-.23.13-.47.26-.7.38-.33.16-.65.33-.98.47-.33.18-.67.34-1,.49-.78.38-1.6.73-2.4,1.06-.73.31-1.49.62-2.24.9-.46.18-.9.34-1.36.51-.07.02-.13.05-.2.07-.82.29-1.63.57-2.47.83-.77.25-1.55.47-2.34.7-.57.16-1.14.33-1.73.47-.42.11-.85.21-1.29.33-.11.03-.23.05-.34.08-1.01.25-2.04.46-3.07.67-1.63.33-3.28.6-4.95.85-.11,0-.21.02-.33.03-.87.13-1.75.23-2.61.33-.73.08-1.45.15-2.19.21-1.34.13-2.68.21-4.03.28-.65.03-1.31.07-1.96.08-.23,0-.44.02-.65.02-.9.02-1.81.03-2.71.03h-7.9l-46.96,57.43H59.53v-199.42h119.95"/>
      </g>
      <polygon class="st2" points="176.02 198.05 109.01 308.12 149.24 303.2 122.14 386.09 214.89 266.28 165.88 270.37 176.02 198.05"/>
    </g>
  </g>
</svg>