<?xml version="1.0" encoding="UTF-8"?>
<svg id="Layer_1" xmlns="http://www.w3.org/2000/svg" version="1.1" viewBox="0 0 633.88 560.54">
  <!-- Generator: Adobe Illustrator 30.2.1, SVG Export Plug-In . SVG Version: 2.1.1 Build 1)  -->
  <defs>
    <style>
      .st0 {
        fill: #0366ff;
      }

      .st1 {
        fill: #1b2236;
      }
    </style>
  </defs>
  <path class="st1" d="M552.48,162.71l-1.86-19.17h-19.27c-53.42,0-101.54-16.43-132.47-30.2-34.09-15.19-55.55-30.62-55.76-30.77l-12.49-9.05-12.48,9.05c-.1.07-5.52,3.97-15.17,9.75-9.65,5.77-23.54,13.43-40.57,21.02-30.95,13.77-79.07,30.2-132.49,30.2h-19.27l-1.86,19.17c-.08.82-.72,7.68-.74,19.01h21.25c.02-10.73.62-16.95.62-16.95,111.52,0,200.73-65.02,200.73-65.02,0,0,89.19,65.02,200.71,65.02,0,0,.51,5.23.6,14.37,7.02.51,14.14,1.22,21.27,2.16-.03-11.07-.65-17.77-.73-18.59ZM330.64,474.71c-66.05-23.75-110.57-60.61-140.53-100.74l-13.83,16.9c4.18,5.39,8.54,10.63,13.07,15.71,34.74,38.95,79.87,68.6,134.11,88.11l7.19,2.58,7.17-2.58c49.65-17.87,91.68-44.21,125.08-78.43-9.23-.67-18.36-1.68-27.44-3.04-26.87,24.34-61.13,45.76-104.81,61.48Z"/>
  <g>
    <g>
      <g>
        <path class="st0" d="M426.85,214.84c-.28-.23-.54-.44-.82-.67.46.38.91.77,1.37,1.16-.18-.16-.36-.33-.56-.49Z"/>
        <path class="st0" d="M243.48,206.38c-.13-.07-.26-.13-.39-.18.34.16.67.33,1,.49-.2-.11-.41-.21-.6-.31Z"/>
      </g>
      <g>
        <path class="st0" d="M426.85,214.84c-.28-.23-.54-.44-.82-.67.46.38.91.77,1.37,1.16-.18-.16-.36-.33-.56-.49Z"/>
        <path class="st1" d="M448.26,263.3c-.02-.56-.03-1.11-.07-1.67-.02-.54-.05-1.08-.1-1.6-.05-.72-.1-1.42-.16-2.12-.08-.85-.18-1.7-.28-2.53-.07-.52-.13-1.05-.21-1.55-.07-.49-.13-.98-.21-1.47-.13-.73-.25-1.45-.39-2.17-.31-1.68-.69-3.3-1.11-4.88,0-.03,0-.07-.02-.1-.21-.77-.42-1.54-.65-2.29-.21-.72-.44-1.44-.69-2.14-.29-.87-.6-1.71-.91-2.53-.26-.67-.54-1.32-.82-1.98-.52-1.24-1.09-2.45-1.68-3.63-1.45-2.84-3.07-5.47-4.87-7.92-.42-.57-.85-1.13-1.27-1.67-1.13-1.42-2.3-2.78-3.54-4.05-.29-.31-.6-.62-.91-.93-.95-.96-1.94-1.88-2.96-2.74-.46-.39-.91-.78-1.37-1.16-.02-.02-.05-.03-.08-.07-.47-.38-.96-.77-1.47-1.13-.39-.33-.8-.64-1.22-.93-.39-.28-.78-.56-1.18-.82-1.94-1.34-3.97-2.56-6.06-3.67-.56-.31-1.11-.59-1.67-.87-.65-.33-1.31-.65-1.98-.95-.46-.21-.91-.41-1.37-.62-.42-.18-.85-.36-1.29-.54-.67-.28-1.36-.56-2.06-.82-.69-.26-1.37-.51-2.07-.75-.67-.23-1.34-.46-2.01-.67-.62-.2-1.24-.39-1.86-.57-.08-.02-.16-.05-.25-.07-.65-.2-1.32-.38-1.98-.54-.69-.2-1.37-.36-2.07-.52-.11-.03-.21-.05-.33-.08-.78-.18-1.58-.36-2.37-.51-.69-.15-1.37-.28-2.06-.39-.44-.1-.9-.18-1.36-.25-1.89-.33-3.82-.59-5.77-.78-.6-.07-1.21-.13-1.83-.16-.96-.1-1.94-.18-2.92-.23-2.16-.13-4.3-.2-6.45-.2h-112.86c1.24.85,2.38,1.71,3.46,2.55,13.44,10.5,29.45,30.48,29.45,66.02,0,40.91-18.77,70.38-50.91,82.97v47.89h76.57l46.96-57.43h7.91c.9,0,1.81-.02,2.71-.03.21,0,.42-.02.65-.02.65-.02,1.31-.05,1.96-.08,1.36-.07,2.69-.15,4.03-.28.73-.07,1.45-.13,2.19-.21.87-.1,1.75-.2,2.61-.33.11-.02.21-.03.33-.03.96-.15,1.93-.29,2.87-.46.7-.11,1.39-.25,2.07-.39,1.03-.21,2.06-.42,3.07-.67.11-.03.23-.05.34-.08.44-.11.87-.21,1.29-.33.59-.15,1.16-.31,1.73-.47.78-.23,1.57-.46,2.34-.7.83-.26,1.65-.54,2.47-.83.07-.02.13-.05.2-.07.46-.16.9-.33,1.36-.51.75-.28,1.5-.59,2.24-.9.8-.33,1.62-.69,2.4-1.06.33-.15.67-.31,1-.49.57-.26,1.13-.56,1.68-.85.08-.03.16-.07.23-.13.65-.33,1.29-.67,1.91-1.05.15-.07.28-.15.41-.23.7-.41,1.4-.83,2.07-1.27.73-.47,1.45-.96,2.17-1.45.6-.41,1.19-.83,1.78-1.29.52-.39,1.05-.78,1.55-1.21.38-.29.75-.6,1.11-.91.29-.25.57-.49.85-.73,2.63-2.32,5.06-4.88,7.27-7.73.46-.57.91-1.18,1.34-1.78.78-1.08,1.55-2.2,2.25-3.36.34-.54.67-1.08.98-1.63.51-.85.98-1.71,1.44-2.58.39-.75.77-1.52,1.13-2.29.34-.73.69-1.47,1-2.22.31-.73.62-1.49.91-2.25.28-.72.54-1.44.8-2.19.03-.05.05-.11.07-.18.16-.46.31-.91.46-1.39.16-.46.31-.93.44-1.4.21-.65.39-1.32.57-2.01.18-.62.34-1.26.49-1.91.13-.47.25-.95.34-1.42.07-.28.13-.54.18-.82.11-.51.23-1.03.31-1.55.15-.65.26-1.32.38-1.99.03-.11.05-.23.05-.33.11-.6.21-1.21.29-1.83.1-.65.2-1.31.28-1.98.05-.36.1-.72.13-1.09.1-.83.18-1.67.25-2.52.02-.07.02-.11.02-.16.07-.6.11-1.21.15-1.83.05-.59.08-1.18.11-1.78.05-.91.08-1.85.11-2.79.03-1.11.05-2.22.05-3.35s-.02-2.22-.07-3.32ZM371.74,268.82c-.33,17.17-11.76,24.94-35.98,24.94h-17.7v-49.42h18.57c10.86,0,19.08,1.45,24.83,4.61,6.97,3.79,10.31,10.03,10.31,19.11,0,.26,0,.52-.02.77Z"/>
        <path class="st1" d="M521.19,272.61c-22-4.28-38.01-6.57-38.01-16.86,0-12.28,19.14-13.13,32.86-13.13,21.71,0,41.99,4,59.14,10v-51.14c-21.15-4.3-44.57-6.86-66-6.86-28.57,0-51.14,3.87-67.75,11.45,11.69,11.43,23.22,30.39,23.22,60.54,0,19.32-4.18,36.1-12,49.73,5.6,1.78,11.61,3.27,17.95,4.56,25.43,5.13,40.86,7.71,40.86,18.28,0,8.85-13.15,13.72-34.58,13.72-16.81,0-35.87-2.58-53.42-7.87-4.62,2.55-9.57,4.69-14.86,6.39v40.05c25.43,6.01,52,9.44,81.71,9.44,57.15,0,97.72-20.29,97.72-66.87,0-44-34-55.14-66.85-61.43Z"/>
      </g>
    </g>
    <path class="st1" d="M278,263.3c-.02-.56-.03-1.11-.07-1.67-.02-.54-.05-1.08-.1-1.6-.05-.72-.1-1.42-.16-2.12-.08-.85-.18-1.7-.28-2.53-.07-.52-.13-1.05-.21-1.55-.03-.33-.1-.67-.15-1-.05-.34-.11-.67-.16-1-.08-.56-.2-1.11-.29-1.65-.1-.54-.21-1.06-.33-1.58-.03-.2-.07-.38-.11-.56-.08-.36-.16-.72-.24-1.08-.13-.56-.28-1.11-.42-1.67,0-.03,0-.07-.02-.1-.11-.39-.21-.78-.33-1.16-.31-1.11-.65-2.2-1.01-3.27-.15-.44-.31-.87-.46-1.29-.24-.7-.51-1.4-.8-2.07-.23-.56-.46-1.09-.69-1.63-.05-.11-.1-.21-.15-.33-.18-.39-.34-.78-.54-1.18-.93-2.01-1.96-3.9-3.09-5.73-.41-.67-.82-1.31-1.26-1.94-.42-.64-.87-1.26-1.31-1.88-.43-.57-.85-1.13-1.27-1.67-.39-.49-.78-.96-1.19-1.44-.21-.26-.42-.52-.65-.77-.55-.64-1.11-1.24-1.7-1.85-.29-.31-.6-.62-.91-.93-.73-.75-1.5-1.47-2.29-2.16-.24-.23-.47-.44-.72-.64-.31-.28-.62-.54-.95-.8-.51-.42-1-.82-1.5-1.19-.42-.33-.85-.65-1.29-.96-.07-.07-.13-.11-.2-.15-.44-.33-.88-.64-1.34-.95-.96-.67-1.96-1.31-2.97-1.93-1.01-.62-2.04-1.21-3.09-1.75-.56-.31-1.11-.59-1.67-.87-.33-.16-.65-.33-1-.49-.33-.16-.65-.31-.98-.46-.46-.21-.91-.41-1.37-.62-.42-.18-.85-.36-1.29-.54-.67-.28-1.36-.56-2.06-.82-.69-.26-1.37-.51-2.07-.75-.67-.23-1.34-.46-2.01-.67-.62-.2-1.24-.39-1.86-.57-.08-.02-.16-.05-.25-.07-.65-.2-1.32-.38-1.98-.54-.69-.2-1.39-.36-2.07-.52-.11-.03-.21-.05-.33-.08-.78-.18-1.58-.36-2.37-.51-.69-.15-1.37-.28-2.06-.39-.44-.1-.9-.16-1.34-.25-.95-.15-1.88-.29-2.83-.42-.95-.13-1.89-.25-2.84-.34-.03,0-.08-.02-.11-.02-.6-.07-1.21-.11-1.83-.16-.07,0-.11-.02-.18-.02-.42-.05-.85-.08-1.27-.11-.49-.05-.98-.08-1.47-.1-2.16-.13-4.3-.2-6.45-.2h-14.36l-10.14,72.32,49.01-4.1-92.75,119.82,27.1-82.89-40.23,4.92,67.01-110.07h-116.49v199.42h76.57l46.96-57.43h7.9c.9,0,1.81-.02,2.71-.03.21,0,.42-.02.65-.02.65-.02,1.31-.05,1.96-.08,1.36-.07,2.69-.15,4.03-.28.73-.07,1.45-.13,2.19-.21.87-.1,1.75-.2,2.61-.33.11-.02.21-.03.33-.03,1.67-.25,3.32-.52,4.95-.85,1.03-.21,2.06-.42,3.07-.67.11-.03.23-.05.34-.08.44-.11.87-.21,1.29-.33.59-.15,1.16-.31,1.73-.47.78-.23,1.57-.46,2.34-.7.83-.26,1.65-.54,2.47-.83.07-.02.13-.05.2-.07.46-.16.9-.33,1.36-.51.75-.28,1.5-.59,2.24-.9.8-.33,1.62-.69,2.4-1.06.33-.15.67-.31,1-.49.33-.15.65-.31.98-.47.23-.11.47-.25.7-.38.08-.03.16-.07.23-.13.65-.33,1.29-.67,1.91-1.05.13-.07.28-.15.41-.23.7-.41,1.4-.83,2.07-1.27.73-.47,1.47-.96,2.17-1.45.44-.31.88-.62,1.32-.95.57-.41,1.14-.85,1.72-1.31.29-.24.6-.49.9-.73.07-.05.15-.11.21-.18.39-.31.77-.65,1.14-.98.59-.52,1.18-1.06,1.75-1.62.39-.38.78-.77,1.18-1.16.52-.51,1.01-1.05,1.5-1.58.46-.49.9-1,1.32-1.52.39-.44.77-.88,1.09-1.34.36-.39.67-.8.96-1.21.54-.7,1.06-1.42,1.57-2.17.52-.73,1.01-1.49,1.49-2.27.34-.54.67-1.08.98-1.63.51-.85.98-1.71,1.44-2.58.67-1.27,1.29-2.58,1.88-3.94.1-.2.18-.38.25-.57.31-.73.62-1.49.91-2.25.28-.72.56-1.44.8-2.19.03-.05.05-.11.07-.18.16-.46.31-.91.46-1.39.18-.51.34-1.01.49-1.54.03-.13.08-.26.11-.39.15-.49.28-.98.41-1.49.18-.62.34-1.26.49-1.91.03-.13.07-.26.1-.39.05-.13.08-.26.1-.39.05-.21.1-.42.15-.64.07-.26.13-.54.18-.82.07-.24.11-.51.16-.77.05-.21.08-.44.13-.65.1-.47.2-.95.28-1.44.05-.24.08-.49.13-.73.02-.1.03-.2.03-.28.03-.16.07-.31.08-.47.07-.38.13-.75.18-1.14.11-.72.23-1.45.31-2.19.08-.67.16-1.34.23-2.01.07-.59.11-1.18.16-1.76.03-.38.06-.73.1-1.11,0-.15.02-.29.03-.46.05-.67.1-1.36.13-2.04.05-.91.08-1.85.11-2.79.03-1.11.05-2.22.05-3.35s-.02-2.22-.06-3.32Z"/>
  </g>
</svg>